HIERARCHY
ROOT Hips
{
	OFFSET	0.00	0.00	0.00
	CHANNELS 6 Xposition Yposition Zposition Zrotation Xrotation Yrotation
	JOINT Chest
	{
		OFFSET	0.000000	6.275751	0.000000
		CHANNELS 3 Zrotation Xrotation Yrotation
		JOINT Neck
		{
			OFFSET	0.000000	14.296947	0.000000
			CHANNELS 3 Zrotation Xrotation Yrotation
			JOINT Head
			{
				OFFSET	0.000000	2.637461	0.000000
				CHANNELS 3 Zrotation Xrotation Yrotation
				End Site
				{
					OFFSET	0.000000	4.499004	0.000000
				}
			}
		}
		JOINT LeftCollar
		{
			OFFSET	1.120000	11.362855	1.870000
			CHANNELS 3 Zrotation Xrotation Yrotation
			JOINT LeftUpArm
			{
				OFFSET	4.565688	2.019026	-1.821179
				CHANNELS 3 Zrotation Xrotation Yrotation
				JOINT LeftLowArm
				{
					OFFSET	0.219729	-10.348825	-0.061708
					CHANNELS 3 Zrotation Xrotation Yrotation
					JOINT LeftHand
					{
						OFFSET	0.087892	-10.352228	2.178217
						CHANNELS 3 Zrotation Xrotation Yrotation
						End Site
						{
							OFFSET	0.131837	-6.692379	1.711456
						}
					}
				}
			}
		}
		JOINT RightCollar
		{
			OFFSET	-1.120000	11.362855	1.870000
			CHANNELS 3 Zrotation Xrotation Yrotation
			JOINT RightUpArm
			{
				OFFSET	-4.708080	2.034554	-1.821179
				CHANNELS 3 Zrotation Xrotation Yrotation
				JOINT RightLowArm
				{
					OFFSET	-0.263676	-10.428555	-0.061708
					CHANNELS 3 Zrotation Xrotation Yrotation
					JOINT RightHand
					{
						OFFSET	0.000000	-10.255345	2.178217
						CHANNELS 3 Zrotation Xrotation Yrotation
						End Site
						{
							OFFSET	-0.140882	-6.671274	1.711456
						}
					}
				}
			}
		}
	}
	JOINT LeftUpLeg
	{
		OFFSET	3.910000	0.000000	0.000000
		CHANNELS 3 Zrotation Xrotation Yrotation
		JOINT LeftLowLeg
		{
			OFFSET	-0.441177	-17.569450	1.695613
			CHANNELS 3 Zrotation Xrotation Yrotation
			JOINT LeftFoot
			{
				OFFSET	-0.043946	-17.197315	-1.478076
				CHANNELS 3 Zrotation Xrotation Yrotation
				End Site
				{
					OFFSET	0.000000	-3.933155	5.233925
				}
			}
		}
	}
	JOINT RightUpLeg
	{
		OFFSET	-3.910000	0.000000	0.000000
		CHANNELS 3 Zrotation Xrotation Yrotation
		JOINT RightLowLeg
		{
			OFFSET	0.437741	-17.622387	1.695613
			CHANNELS 3 Zrotation Xrotation Yrotation
			JOINT RightFoot
			{
				OFFSET	0.000000	-17.140001	-1.478076
				CHANNELS 3 Zrotation Xrotation Yrotation
				End Site
				{
					OFFSET	0.000000	-4.038528	5.233925
				}
			}
		}
	}
}
MOTION
Frames: 15
Frame Time: 0.04166667
220.119141	5.331044	3.114655	-13.710801	-4.200789	79.047348	-0.552587	13.797071	-2.146507	-7.002991	7.945817	13.531137	-9.009811	-7.425025	-3.814382	-16.456520	0.605966	-5.274121	20.424246	18.147549	-91.131409	-3.941954	-14.800883	9.571746	-19.476688	3.159396	-4.063523	4.902503	7.837324	3.458250	-21.529940	-5.419518	38.610611	-3.351536	1.640363	2.468384	-7.281996	2.496141	-1.557934	23.093410	-53.138626	11.337143	-1.132584	71.853180	-5.727680	-3.135862	2.767723	0.284988	13.599635	-1.922061	-27.557327	2.079684	-9.166682	7.411944	-10.719107	-2.045918	5.791911	
220.866364	5.809474	3.260695	-15.639383	-5.057308	83.605904	0.198288	13.317373	-3.016043	-7.402838	7.112652	12.187852	-7.767508	-7.839279	-3.335133	-16.739647	0.488868	-4.862614	18.500999	17.947819	-90.329163	-3.542633	-17.524672	9.778601	-18.626205	3.100336	-3.892218	4.675024	8.838179	2.849405	-21.035652	-6.028086	40.538383	-2.698700	1.427126	2.015489	-5.958255	2.463367	-1.275804	19.722967	-50.287239	8.103388	-2.296050	54.566673	-6.007405	-4.144765	-1.081027	0.167154	14.330574	-3.284269	-32.095032	2.138043	-9.166177	8.023280	-9.805431	-2.023378	5.726944	
221.553787	6.224267	3.381167	-16.188290	-4.957095	87.195724	-1.652345	14.622966	-2.297222	-6.360529	6.099744	10.496486	-6.908846	-8.403157	-3.027365	-16.415997	2.298771	-4.414014	17.923550	15.585580	-89.145752	-3.385471	-19.837704	9.973978	-16.980913	2.993478	-3.558606	6.043707	9.368315	1.725533	-21.024075	-6.897782	43.507320	-2.104901	0.696108	1.565819	-3.712127	2.423320	-0.795731	15.270124	-43.056297	2.896595	-2.490771	32.488258	-6.330103	-6.523582	-3.594432	0.081902	13.927964	-3.205982	-36.849552	2.287626	-9.149567	9.695270	-8.622705	-1.993864	5.642539	
222.417831	6.326362	3.381242	-17.657763	-5.575054	90.430794	-1.182323	13.974917	-2.782528	-6.685558	6.085670	10.013945	-6.497329	-8.659795	-2.873050	-16.319380	1.289643	-4.824564	15.956020	17.119471	-87.123756	-3.369289	-21.198524	10.270984	-16.221258	2.947082	-3.403615	5.109294	8.399080	2.536729	-20.387594	-5.124681	45.178841	-1.589876	0.053417	1.261304	-2.932989	2.413291	-0.628871	13.385998	-33.920460	-6.250320	-1.755978	5.633665	-1.527118	-8.264583	-2.248569	0.341811	14.271233	-3.867543	-41.590664	2.483286	-9.117121	11.917405	-7.426841	-2.827874	5.442995	
223.322342	6.181995	3.270945	-18.293589	-6.060609	92.528015	-0.788937	14.195293	-2.645875	-6.958526	5.874537	9.899837	-6.332726	-8.616703	-2.795142	-16.683636	1.346037	-4.826873	14.966961	17.278542	-85.514931	-3.168338	-22.247484	10.173362	-15.571552	2.909025	-3.270625	4.962759	8.824087	2.762555	-20.669977	-5.154145	46.209957	-1.795659	0.194978	1.320780	-1.756232	2.402834	-0.376616	13.449496	-27.999876	-6.725454	-1.291216	-9.208124	0.283908	-5.275337	-3.815276	0.014177	14.642081	-3.487823	-45.604347	2.655118	-9.081992	13.886099	-6.502375	-4.724630	5.169675	
224.219040	5.716844	3.123308	-18.972570	-7.633412	93.353111	1.168218	13.174750	-2.164747	-7.662341	6.642776	10.155442	-6.261630	-8.760649	-2.778421	-16.759718	-0.121789	-5.519767	13.433000	19.748665	-83.798668	-3.095143	-23.374231	10.431316	-15.455347	2.902963	-3.246704	3.696229	7.582469	4.381639	-20.579628	-2.470993	47.088570	-1.583556	0.197605	1.141620	-1.325436	2.400320	-0.284271	13.369653	-27.672995	0.592371	-1.458404	-9.210042	-1.529437	-4.052637	-7.727570	-0.296169	16.163687	-2.887942	-47.435413	2.735226	-9.063761	14.795964	-5.601683	-7.314595	4.890398	
225.150238	5.183649	2.874810	-19.317022	-8.882716	93.048828	2.654295	12.329456	-0.988333	-8.111420	7.478745	9.754005	-5.800329	-9.067878	-2.601663	-16.514673	-1.625769	-6.373673	12.298519	22.025213	-81.908638	-3.346478	-24.036448	11.156366	-15.351081	2.896399	-3.225397	2.529699	5.615098	6.536190	-20.153000	1.033146	46.961605	-1.496544	0.664174	1.013178	-1.041212	2.398953	-0.223293	13.895843	-26.650961	9.690893	-1.910682	-9.185535	-6.478990	-7.091282	-6.191641	-0.214186	17.119255	-1.523964	-46.873322	2.711444	-9.071177	14.493280	-4.473728	-10.158706	4.689188	
225.815048	4.833359	2.637782	-20.943871	-10.090531	93.259560	3.708379	10.596030	-0.357909	-7.987145	8.060582	7.751315	-4.629394	-9.821304	-2.131109	-15.771623	-2.868722	-7.318099	12.015667	23.115614	-80.010651	-4.022614	-23.659431	12.251590	-15.055929	2.880433	-3.164730	2.053487	3.176317	8.652920	-19.274088	4.582481	46.285244	-1.772228	1.436249	1.088801	-0.929397	2.398799	-0.199374	17.712336	-35.249588	21.074711	-4.144418	5.724792	-15.814633	-5.576017	-6.134878	-0.197071	17.883917	-1.755177	-45.737640	2.587229	-9.100957	13.042837	-3.459294	-11.826336	4.658364	
226.731659	4.894531	2.369577	-21.828957	-9.423779	94.557396	1.868189	11.189318	0.220485	-6.558150	7.344910	3.920517	-3.246626	-10.461463	-1.526784	-14.612862	-1.378493	-7.544418	14.267280	19.378475	-79.899399	-4.535514	-22.150919	12.386526	-14.879868	2.871259	-3.128477	3.748573	3.279629	8.454751	-19.327173	3.713041	45.179600	-2.297953	2.476455	1.277941	-0.792302	2.398204	-0.169936	15.930604	-36.464058	19.213413	-4.368829	6.221987	-17.225674	-5.416010	-1.268742	0.254691	16.527822	-1.522116	-45.327061	2.446660	-9.129212	11.408204	-2.313571	-11.624527	4.779974	
227.764389	5.086914	1.999959	-23.271282	-9.020452	95.802719	1.506223	9.290961	0.045668	-6.349632	8.400746	0.286500	-1.977177	-10.411300	-0.927581	-13.129577	-3.939008	-8.982228	14.211407	20.757896	-78.716072	-5.712730	-19.163616	12.701231	-14.603911	2.855424	-3.071737	3.173553	-0.516625	10.779125	-17.396135	8.444751	43.604179	-2.135104	2.783519	1.396921	-4.706052	2.438408	-1.008315	13.410614	-36.667343	14.359937	-3.793782	4.236039	-14.975499	-6.559550	2.538718	0.772943	15.143849	-1.715727	-44.637131	2.294892	-9.157603	9.673194	-0.939601	-10.609566	4.926707	
228.727570	5.302305	1.625803	-23.040424	-8.737169	96.937675	1.853829	10.009626	-0.571039	-6.401542	7.912245	-2.780245	-1.123414	-9.543960	-0.511013	-13.313909	-2.603576	-7.987087	16.830261	16.192808	-79.408699	-7.074732	-15.731439	12.816664	-14.588594	2.854898	-3.068596	3.727546	1.394553	10.029801	-18.437162	5.542327	44.467461	-1.868738	2.537844	1.239209	-4.802532	2.440145	-1.028963	11.312317	-34.351299	10.418329	-3.197637	1.187160	-12.688134	-8.319525	5.840759	1.501637	13.736547	-0.332368	-42.252182	2.034328	-9.192708	6.725933	0.207778	-7.897131	5.005432	
229.674927	5.370171	1.219739	-22.519459	-8.846798	96.677734	3.235144	9.171395	-0.844357	-6.993869	8.293003	-4.328510	-0.607366	-8.408138	-0.264913	-13.619804	-3.170046	-7.792375	18.442997	14.856979	-80.470299	-8.049998	-12.336844	12.384865	-14.919369	2.873333	-3.136627	3.080278	1.364005	10.303741	-18.435257	5.819125	46.798275	-1.934129	2.084465	1.332813	-5.403593	2.451838	-1.157402	11.451251	-34.483047	9.270281	-3.269736	4.917907	-11.212101	-7.279097	4.832124	1.163237	12.206887	1.600487	-35.489265	1.632277	-9.215143	2.199773	0.539268	-4.001780	4.978609	
230.310257	5.391440	0.774861	-20.821505	-7.761765	95.634727	2.888322	8.784986	-0.188865	-6.485543	8.677654	-5.188132	-0.697998	-7.891061	-0.298470	-13.516593	-3.258839	-8.221696	20.602289	13.679500	-83.034500	-8.182711	-9.236498	11.356445	-16.194744	2.945930	-3.398152	3.328518	0.979016	10.033935	-18.191128	6.676532	45.917072	-1.945857	2.307301	1.301115	-5.159275	2.446832	-1.105180	10.332421	-32.987892	7.645342	-3.090243	8.814614	-8.572712	-4.994805	2.880077	0.572587	9.550264	4.555799	-27.746021	1.220733	-9.203665	-2.483765	-1.132625	0.579574	5.134108	
231.279144	5.290678	0.324783	-18.159040	-6.452970	94.767021	2.783236	8.626512	0.190402	-5.784866	8.892788	-5.336965	-1.334751	-7.657591	-0.565648	-13.640521	-2.959802	-8.599527	23.332411	11.930561	-88.584518	-7.626990	-6.701254	10.353723	-19.626009	3.169844	-4.093525	3.805448	1.120427	9.468466	-18.222971	7.358809	44.696774	-1.704442	2.545836	1.083745	-4.493762	2.434797	-0.962902	8.862419	-30.910002	6.547124	-2.914032	13.397434	-6.645625	-3.228683	0.362865	0.169633	3.957584	0.385462	-19.261789	0.967757	7.294298	-7.424406	-4.790717	-1.769616	5.373624	
232.204544	5.069363	-0.125585	-14.597253	-4.551653	94.379303	2.738219	9.031989	-0.409546	-5.329501	8.621102	-4.594345	-2.049960	-7.294163	-0.856562	-14.044319	-1.864233	-8.327490	26.522289	8.524600	-97.871468	-6.247895	-5.169546	8.981585	-22.332653	3.376315	-4.632102	4.362383	2.451888	8.535869	-18.840628	6.735342	44.106049	-1.612402	2.962470	0.947085	-3.755777	2.423329	-0.805019	6.884302	-27.513536	8.071929	-3.038880	17.227407	-7.471113	-1.291107	-2.232055	-0.090179	-1.492509	-6.643443	-15.218454	0.738492	29.932276	-9.068964	-7.920419	-4.299859	5.267042	
